# xmcd
#
# Track frame offsets: 
#        150
#        27099
#        42033
#        60890
#        77444
#        94540
#        110176
#        137194
#        156625
#        174030
#        199462
#        226782
#        245690
#        270995
#
# Disc length: 3951 seconds
#
# Revision: 0
# Processed by: cddbd v1.5.2PL0 Copyright (c) Steve Scherf et al.
# Submitted via: ExactAudioCopyFreeDBPlugin 1.0
#
DISCID=ad0f6d0e
DTITLE=Skyzoo - A Dream Deferred
DYEAR=2012
DGENRE=Hip-Hop
TTITLE0=Dreams in a Basement (ft. Jill Scott)
TTITLE1=Jansport Springs (One Time for Chi-Ali)
TTITLE2=Pockets Full (ft. Freeway)
TTITLE3=Give It Up (ft. DJ Prince)
TTITLE4=Glass Ceilings
TTITLE5=Range Rover Rhythm
TTITLE6=The Knowing (ft. Jessy Wilson)
TTITLE7=Drew and Derwin (ft. Raheem DeVaughn)
TTITLE8=Realization (ft. Jared Evan)
TTITLE9=The Rage of Roemello
TTITLE10=How to Make it Through Hysteria
TTITLE11=Steel's Apartment
TTITLE12=Spike Lee Was  My Hero (ft. Talib Kweli)
TTITLE13=The Cost of Sleep
EXTD=
EXTT0=
EXTT1=
EXTT2=
EXTT3=
EXTT4=
EXTT5=
EXTT6=
EXTT7=
EXTT8=
EXTT9=
EXTT10=
EXTT11=
EXTT12=
EXTT13=
PLAYORDER=
